<svg xmlns="http://www.w3.org/2000/svg" xmlns:xlink="http://www.w3.org/1999/xlink" viewBox="0 0 42.52 42.52"><defs><style>.cls-1{fill:url(#linear-gradient);}.cls-2{fill:none;}</style><linearGradient id="linear-gradient" x1="8.12" y1="34.41" x2="34.41" y2="8.12" gradientUnits="userSpaceOnUse"><stop offset="0.23" stop-color="#181199"/><stop offset="0.44" stop-color="#0e4b9f"/><stop offset="0.68" stop-color="#0487a5"/><stop offset="0.8" stop-color="#009fa8"/></linearGradient></defs><g id="Layer_2" data-name="Layer 2"><g id="Layer_1-2" data-name="Layer 1"><path class="cls-1" d="M26,26.6l-10-10a1.89,1.89,0,0,0-.51-.34.94.94,0,0,0-1.16.34,1,1,0,0,0,0,1.14c.3.34.62.67.94,1,.09.08.11.15,0,.25-.27.27-.52.55-.8.82a7.2,7.2,0,0,0-2.08,2.89A6.05,6.05,0,0,0,12,24a5.37,5.37,0,0,0,.16,2.18,5.56,5.56,0,0,0,.6,1.42c.22.36.21.47-.1.78l-3,3c-.52.52-1.05,1-1.53,1.58a.88.88,0,0,0-.29.79,1.28,1.28,0,0,0,.15.4,1,1,0,0,0,.67.48,1.13,1.13,0,0,0,.94-.34c.31-.32.64-.63,1-1l3.69-3.7a.27.27,0,0,1,.36-.08,11.18,11.18,0,0,0,1.22.56,4.16,4.16,0,0,0,1.44.34,7,7,0,0,0,2.13-.18,6.52,6.52,0,0,0,1.66-.74,15,15,0,0,0,2.31-2.13c.29-.29.34-.29.63,0a12,12,0,0,0,.92.82.86.86,0,0,0,1,0,.8.8,0,0,0,.44-.92C26.41,27.07,26.19,26.83,26,26.6ZM33.7,7.82a1.37,1.37,0,0,0-.86.43l-4.52,4.53a.32.32,0,0,1-.44.09,10.94,10.94,0,0,0-1.15-.53A4.17,4.17,0,0,0,25.29,12a6.69,6.69,0,0,0-2.13.18,5.75,5.75,0,0,0-1.66.73A16.83,16.83,0,0,0,20,14.2c-.34.31-.66.65-1,1-.12.12-.2.12-.33,0-.35-.32-.7-.65-1.07-.95a.84.84,0,0,0-1,0,.79.79,0,0,0-.45.87,1,1,0,0,0,.38.87q5,5,10,10a1.77,1.77,0,0,0,.71.39.93.93,0,0,0,1.1-.62,1.13,1.13,0,0,0-.31-1.13,9.45,9.45,0,0,1-.77-.78c-.09-.09-.1-.16,0-.25l.55-.58A8.36,8.36,0,0,0,30,20.38a6.25,6.25,0,0,0,.53-1.54,5.72,5.72,0,0,0-.12-2.5,6.44,6.44,0,0,0-.62-1.48c-.23-.37-.21-.45.09-.74.87-.88,1.75-1.76,2.63-2.63.6-.6,1.21-1.19,1.79-1.81a1.65,1.65,0,0,0,.45-.77A1,1,0,0,0,33.7,7.82Z"/><rect class="cls-2" width="42.52" height="42.52"/></g></g></svg>