<svg xmlns="http://www.w3.org/2000/svg" viewBox="0 0 42.52 42.52"><defs><style>.cls-1{fill:#666;}.cls-2{fill:none;}</style></defs><g id="Layer_2" data-name="Layer 2"><g id="Layer_1-2" data-name="Layer 1"><path class="cls-1" d="M34.39,9.52a.94.94,0,0,0,.14-1.23,1.16,1.16,0,0,0-.62-.45,1,1,0,0,0-.93.28c-.53.53-1,1.06-1.6,1.58a.48.48,0,0,1-.33.1,1,1,0,0,1-.37-.19,5,5,0,0,0-1.93-.7,5.57,5.57,0,0,0-3.45.51,5.08,5.08,0,0,0-1.25.79c-.64.61-1.28,1.22-1.9,1.84-.12.12-.2.15-.32,0s-.41-.4-.61-.61a2,2,0,0,0-.89-.53,1,1,0,0,0-.86,1.63c.26.32.57.59.86.89l1.44,1.45c.1.1.1.16,0,.26s-.48.49-.72.73c-.6.61-1.22,1.2-1.81,1.81a3.22,3.22,0,0,0-1,1.24,1.43,1.43,0,0,0,.13.82,1,1,0,0,0,1.35.23,2.7,2.7,0,0,0,.51-.45L23.1,16.7a.3.3,0,0,1,.49,0l.53.54c.58.58,1.17,1.15,1.74,1.74a.26.26,0,0,1,0,.39c-.65.64-1.31,1.27-1.94,1.94A6.07,6.07,0,0,0,22.44,23a.72.72,0,0,0-.07.38,1.1,1.1,0,0,0,.42.71,1.21,1.21,0,0,0,1.17,0c.37-.34.72-.69,1.08-1.05l2.31-2.3c.11-.12.17-.1.28,0l1.87,1.87c.42.41.83.8,1.49.54a1.19,1.19,0,0,0,.58-.63,1.19,1.19,0,0,0-.35-1.06c-.28-.27-.54-.55-.8-.82-.09-.09-.09-.16,0-.25.34-.34.67-.69,1-1a6.23,6.23,0,0,0,1.89-2.77,9.64,9.64,0,0,0,.31-1.26,5.26,5.26,0,0,0-.14-2,6.45,6.45,0,0,0-.74-1.75.31.31,0,0,1,.06-.44C33.35,10.59,33.89,10.07,34.39,9.52ZM22.53,29.42l-2.2-2.22L17.9,24.78l-2.42-2.43c-.82-.83-1.65-1.66-2.48-2.48-.4-.39-.79-.76-1.44-.53A.88.88,0,0,0,11,20,1,1,0,0,0,11.3,21c.27.26.53.54.8.82a.15.15,0,0,1,0,.25c-.29.28-.58.56-.86.85a9.5,9.5,0,0,0-1.64,2,6.23,6.23,0,0,0-.71,2.13A5.47,5.47,0,0,0,9,29.12a7.14,7.14,0,0,0,.72,1.79c.16.31.17.3-.08.55-.51.51-1,1-1.51,1.54a1,1,0,0,0-.31.78.93.93,0,0,0,.16.45,1.45,1.45,0,0,0,.63.45,1,1,0,0,0,.94-.29l1.58-1.57c.11-.11.22-.18.36-.1a5.13,5.13,0,0,0,1.34.63,9.85,9.85,0,0,0,1.22.29,5.56,5.56,0,0,0,3.2-.55,5.76,5.76,0,0,0,1.48-1c.56-.54,1.11-1.09,1.66-1.64.1-.1.17-.12.28,0s.43.42.64.63a2,2,0,0,0,.88.53,1,1,0,0,0,1-.69,1,1,0,0,0-.22-1Z"/><rect class="cls-2" width="42.52" height="42.52"/></g></g></svg>