<svg xmlns="http://www.w3.org/2000/svg" xmlns:xlink="http://www.w3.org/1999/xlink" viewBox="0 0 113.39 113.39"><defs><style>.cls-1{fill:none;}.cls-2{fill:url(#linear-gradient);}</style><linearGradient id="linear-gradient" x1="5.69" y1="99.39" x2="107.69" y2="-2.61" gradientUnits="userSpaceOnUse"><stop offset="0.23" stop-color="#181199"/><stop offset="0.44" stop-color="#0e4b9f"/><stop offset="0.68" stop-color="#0487a5"/><stop offset="0.8" stop-color="#009fa8"/></linearGradient></defs><g id="Layer_2" data-name="Layer 2"><g id="Layer_1-2" data-name="Layer 1"><rect class="cls-1" width="113.39" height="113.39"/><path class="cls-2" d="M68.24,34.31H75.3L54.81,54.8a2.67,2.67,0,0,0,3.77,3.77L79.06,38.08v7.06a2.67,2.67,0,0,0,5.33,0V31.65a2.59,2.59,0,0,0-.21-1,2.67,2.67,0,0,0-1.44-1.44,2.71,2.71,0,0,0-1-.2H68.24a2.66,2.66,0,1,0,0,5.32ZM39.71,84.4h34A10.73,10.73,0,0,0,84.39,73.68V57a2.67,2.67,0,1,0-5.33,0V73.68a5.39,5.39,0,0,1-5.39,5.39h-34a5.4,5.4,0,0,1-5.39-5.39v-34a5.4,5.4,0,0,1,5.39-5.39h17a2.67,2.67,0,1,0,0-5.33h-17A10.73,10.73,0,0,0,29,39.72v34A10.73,10.73,0,0,0,39.71,84.4ZM109,1.66V83.38a25.37,25.37,0,0,1-25.35,25.34H29.76A25.37,25.37,0,0,1,4.42,83.38V1.66h-3V83.38a28.34,28.34,0,0,0,28.34,28.34H83.62A28.34,28.34,0,0,0,112,83.38V1.66Z"/></g></g></svg>