<svg xmlns="http://www.w3.org/2000/svg" viewBox="0 0 113.39 113.39"><defs><style>.cls-1{fill:none;}.cls-2{fill:#969696;}</style></defs><g id="Layer_2" data-name="Layer 2"><g id="Layer_1-2" data-name="Layer 1"><rect class="cls-1" width="113.39" height="113.39"/><path class="cls-2" d="M31.09,59H59a8.6,8.6,0,0,0,16.61,0h6.32a2.31,2.31,0,1,0,0-4.61H75.56a8.61,8.61,0,0,0-16.61,0H31.09a2.31,2.31,0,1,0,0,4.61Zm0-19h6.32a8.61,8.61,0,0,0,16.61,0H81.88a2.31,2.31,0,0,0,0-4.62H54a8.6,8.6,0,0,0-16.61,0H31.09a2.31,2.31,0,1,0,0,4.62Zm0,38.09h6.32A8.61,8.61,0,0,0,54,78H81.88a2.31,2.31,0,0,0,0-4.62H54a8.61,8.61,0,0,0-16.61,0H31.09a2.31,2.31,0,1,0,0,4.62ZM109,1.66V83.38a25.37,25.37,0,0,1-25.35,25.34H29.76A25.37,25.37,0,0,1,4.42,83.38V1.66h-3V83.38a28.34,28.34,0,0,0,28.34,28.34H83.62A28.34,28.34,0,0,0,112,83.38V1.66Z"/></g></g></svg>