<svg xmlns="http://www.w3.org/2000/svg" xmlns:xlink="http://www.w3.org/1999/xlink" viewBox="0 0 113.39 113.39"><defs><style>.cls-1{fill:none;}.cls-2{fill:url(#linear-gradient);}</style><linearGradient id="linear-gradient" x1="5.69" y1="99.39" x2="107.69" y2="-2.61" gradientUnits="userSpaceOnUse"><stop offset="0.23" stop-color="#181199"/><stop offset="0.44" stop-color="#0e4b9f"/><stop offset="0.68" stop-color="#0487a5"/><stop offset="0.8" stop-color="#009fa8"/></linearGradient></defs><g id="Layer_2" data-name="Layer 2"><g id="Layer_1-2" data-name="Layer 1"><rect class="cls-1" width="113.39" height="113.39"/><path class="cls-2" d="M31.3,59H59.16a8.61,8.61,0,0,0,16.61,0h6.32a2.31,2.31,0,1,0,0-4.62H75.77a8.61,8.61,0,0,0-16.61,0H31.3a2.31,2.31,0,1,0,0,4.62Zm0-19h6.31a8.62,8.62,0,0,0,16.62,0H82.09a2.31,2.31,0,1,0,0-4.62H54.23a8.61,8.61,0,0,0-16.62,0H31.3a2.31,2.31,0,1,0,0,4.62Zm0,38.09h6.31a8.61,8.61,0,0,0,16.62,0H82.09a2.31,2.31,0,1,0,0-4.62H54.23a8.61,8.61,0,0,0-16.62,0H31.3a2.31,2.31,0,1,0,0,4.62ZM109,1.66V83.38a25.37,25.37,0,0,1-25.35,25.34H29.76A25.37,25.37,0,0,1,4.42,83.38V1.66h-3V83.38a28.34,28.34,0,0,0,28.34,28.34H83.62A28.34,28.34,0,0,0,112,83.38V1.66Z"/></g></g></svg>