<svg xmlns="http://www.w3.org/2000/svg" xmlns:xlink="http://www.w3.org/1999/xlink" viewBox="0 0 113.39 113.39"><defs><style>.cls-1{fill:none;}.cls-2{fill:url(#linear-gradient);}</style><linearGradient id="linear-gradient" x1="5.69" y1="99.39" x2="107.69" y2="-2.61" gradientUnits="userSpaceOnUse"><stop offset="0.23" stop-color="#181199"/><stop offset="0.44" stop-color="#0e4b9f"/><stop offset="0.68" stop-color="#0487a5"/><stop offset="0.8" stop-color="#009fa8"/></linearGradient></defs><g id="Layer_2" data-name="Layer 2"><g id="Layer_1-2" data-name="Layer 1"><rect class="cls-1" width="113.39" height="113.39"/><path class="cls-2" d="M39.38,84.33a8.1,8.1,0,0,0,5.87-2.53l11.34-12L68.17,81.92A8.08,8.08,0,0,0,82.1,76.34V41.67A12.72,12.72,0,0,0,69.4,29H44a12.73,12.73,0,0,0-12.71,12.7V76.26A8.09,8.09,0,0,0,39.38,84.33ZM109,1.66V83.38a25.37,25.37,0,0,1-25.35,25.34H29.76A25.37,25.37,0,0,1,4.42,83.38V1.66h-3V83.38a28.34,28.34,0,0,0,28.34,28.34H83.62A28.34,28.34,0,0,0,112,83.38V1.66Z"/></g></g></svg>