<svg xmlns="http://www.w3.org/2000/svg" viewBox="0 0 113.39 113.39"><defs><style>.cls-1{fill:none;}.cls-2{fill:#969696;}</style></defs><g id="Layer_2" data-name="Layer 2"><g id="Layer_1-2" data-name="Layer 1"><rect class="cls-1" width="113.39" height="113.39"/><path class="cls-2" d="M56.69,56.69a5,5,0,1,0,5,5A5,5,0,0,0,56.69,56.69Zm-5-14.88h9.92a7.44,7.44,0,0,0,7.44-7.44V27.09a12.5,12.5,0,0,0-1.63-.16H44.29v7.44A7.44,7.44,0,0,0,51.73,41.81Zm24.5-11.25a12.76,12.76,0,0,0-2.17-1.71v5.52a12.42,12.42,0,0,1-12.41,12.4H51.73a12.42,12.42,0,0,1-12.4-12.4V26.93a12.41,12.41,0,0,0-12.4,12.4V74.06a12.42,12.42,0,0,0,12.4,12.4H74.06a12.42,12.42,0,0,0,12.4-12.4V45.92a12.33,12.33,0,0,0-3.63-8.77Zm-19.54,41a9.92,9.92,0,1,1,9.92-9.92A9.92,9.92,0,0,1,56.69,71.57ZM83.47,1.42H29.92a28.5,28.5,0,0,0-28.5,28.5V83.47A28.5,28.5,0,0,0,29.92,112H83.47A28.5,28.5,0,0,0,112,83.47V29.92A28.5,28.5,0,0,0,83.47,1.42ZM110,83.47A26.53,26.53,0,0,1,83.47,110H29.92A26.52,26.52,0,0,1,3.43,83.47V29.92A26.52,26.52,0,0,1,29.92,3.43H83.47A26.52,26.52,0,0,1,110,29.92Z"/></g></g></svg>