<svg xmlns="http://www.w3.org/2000/svg" viewBox="0 0 113.39 113.39"><defs><style>.cls-1{fill:#969696;}.cls-2{fill:none;}</style></defs><g id="Layer_2" data-name="Layer 2"><g id="Layer_1-2" data-name="Layer 1"><path class="cls-1" d="M84.79,56.38a18.62,18.62,0,0,1,2.37.16v-15c0-.39-.08-.75-.11-1.15L65.84,61.63a12.61,12.61,0,0,1-17.81,0l-21.2-21.2a11.51,11.51,0,0,0-.12,1.15V71.8a12.62,12.62,0,0,0,12.6,12.6H68.63a18.66,18.66,0,0,1,16.16-28ZM62.28,58.07l23-23A12.55,12.55,0,0,0,74.57,29H39.31a12.54,12.54,0,0,0-10.72,6.07l23,23A7.58,7.58,0,0,0,62.28,58.07ZM101.39,73v0L94.1,65.69a2,2,0,0,0-2.88,2.87L95,72.38H72.92a2,2,0,1,0,0,4.06H95l-3.82,3.81a2,2,0,0,0,2.88,2.88l7.28-7.28s0,0,0,0a2,2,0,0,0,0-2.84ZM83.47,1.42H29.92a28.5,28.5,0,0,0-28.5,28.5V83.47A28.5,28.5,0,0,0,29.92,112H83.47A28.5,28.5,0,0,0,112,83.47V29.92A28.5,28.5,0,0,0,83.47,1.42ZM110,83.47A26.53,26.53,0,0,1,83.47,110H29.92A26.52,26.52,0,0,1,3.43,83.47V29.92A26.52,26.52,0,0,1,29.92,3.43H83.47A26.52,26.52,0,0,1,110,29.92Z"/><rect class="cls-2" width="113.39" height="113.39"/></g></g></svg>